<svg xmlns="http://www.w3.org/2000/svg" viewBox="0 0 480 280" fill="none">
  <rect width="480" height="280" rx="24" fill="#0d0d0d"/>
  <circle cx="380" cy="70" r="90" fill="#1ea968" fill-opacity="0.08"/>
  <circle cx="90" cy="210" r="70" fill="#b7bdc8" fill-opacity="0.06"/>
  <rect x="48" y="52" width="160" height="176" rx="16" fill="#161616" stroke="#2a2a2a" stroke-width="1.5"/>
  <rect x="68" y="78" width="120" height="8" rx="4" fill="#1ea968" fill-opacity="0.5"/>
  <rect x="68" y="98" width="90" height="6" rx="3" fill="#333"/>
  <rect x="68" y="112" width="100" height="6" rx="3" fill="#333"/>
  <path d="M68 140 L148 140 L148 190 L68 190 Z" fill="#101010" stroke="#2a2a2a"/>
  <polyline points="78,178 98,158 118,168 138,138" stroke="#1ea968" stroke-width="2.5" fill="none" stroke-linecap="round" stroke-linejoin="round"/>
  <circle cx="240" cy="140" r="56" fill="#121212" stroke="#1ea968" stroke-width="2"/>
  <path d="M240 98 L252 128 L228 128 L240 158 L228 128" fill="#1ea968" transform="translate(0,-10)"/>
  <path d="M228 128 L252 128 L240 98 Z" fill="#27d17f"/>
  <rect x="240" y="128" width="24" height="30" rx="2" fill="#1ea968"/>
  <rect x="320" y="72" width="112" height="56" rx="12" fill="#161616" stroke="#2a2a2a"/>
  <text x="336" y="96" fill="#9eaccb" font-family="Inter,sans-serif" font-size="11">Consumption</text>
  <text x="336" y="118" fill="#eaf1ff" font-family="Inter,sans-serif" font-size="18" font-weight="600">kWh</text>
  <rect x="320" y="148" width="112" height="56" rx="12" fill="#161616" stroke="#2a2a2a"/>
  <text x="336" y="172" fill="#9eaccb" font-family="Inter,sans-serif" font-size="11">Efficiency</text>
  <rect x="336" y="180" width="80" height="8" rx="4" fill="#222"/>
  <rect x="336" y="180" width="52" height="8" rx="4" fill="#1ea968"/>
  <rect x="320" y="220" width="52" height="52" rx="10" fill="#161616" stroke="#2a2a2a"/>
  <circle cx="346" cy="240" r="8" fill="#f8b84e" fill-opacity="0.3"/>
  <rect x="384" y="220" width="52" height="52" rx="10" fill="#161616" stroke="#2a2a2a"/>
  <rect x="398" y="238" width="24" height="16" rx="3" fill="#1ea968" fill-opacity="0.4"/>
</svg>
